<svg id="Layer_1_1_" enable-background="new 0 0 64 64" height="512" viewBox="0 0 64 64" width="512" xmlns="http://www.w3.org/2000/svg"><path d="m15 48.949v13.051h2v-13.051c5.454-.494 9.76-4.985 9.978-10.513l2.729-2.729-1.414-1.414-2.729 2.729c-.41.016-.813.055-1.21.115 1.556-1.819 2.523-4.149 2.624-6.701l2.729-2.729-1.414-1.414-2.729 2.729c-.41.016-.813.055-1.21.115 1.556-1.819 2.523-4.149 2.624-6.701l2.729-2.729-1.414-1.414-2.729 2.729c-.41.016-.813.055-1.21.115 1.556-1.819 2.523-4.149 2.624-6.701l2.729-2.729-1.414-1.414-2.729 2.729c-2.386.094-4.577.946-6.339 2.33 1.508-2.795-1.326-8.081-2.225-9.625v-3.727h-2v3.727c-.899 1.544-3.733 6.83-2.225 9.625-1.762-1.384-3.953-2.236-6.339-2.33l-2.729-2.729-1.414 1.414 2.729 2.729c.101 2.552 1.067 4.882 2.624 6.701-.397-.06-.8-.099-1.21-.115l-2.729-2.729-1.414 1.414 2.729 2.729c.101 2.552 1.067 4.882 2.624 6.701-.397-.06-.8-.099-1.21-.115l-2.729-2.729-1.414 1.414 2.729 2.729c.101 2.552 1.067 4.882 2.624 6.701-.397-.06-.8-.099-1.21-.115l-2.729-2.729-1.414 1.414 2.729 2.729c.218 5.528 4.524 10.019 9.978 10.513zm1-29.505c-.474-1.036-1.104-1.983-1.861-2.818.477.223 1.08.374 1.861.374s1.384-.151 1.861-.373c-.757.834-1.387 1.781-1.861 2.817zm0 5.556c.561 0 1.107-.056 1.646-.137-.663.775-1.217 1.643-1.646 2.581-.429-.938-.983-1.806-1.646-2.581.539.081 1.085.137 1.646.137zm0 8c.561 0 1.107-.056 1.646-.137-.663.775-1.217 1.643-1.646 2.581-.429-.938-.983-1.806-1.646-2.581.539.081 1.085.137 1.646.137zm0 8c.561 0 1.107-.056 1.646-.137-.663.775-1.217 1.643-1.646 2.581-.429-.938-.983-1.806-1.646-2.581.539.081 1.085.137 1.646.137zm1.063 5.938c.485-4.115 3.76-7.39 7.875-7.875-.486 4.115-3.76 7.389-7.875 7.875zm0-8c.485-4.115 3.76-7.39 7.875-7.875-.486 4.115-3.76 7.389-7.875 7.875zm0-8c.485-4.115 3.76-7.39 7.875-7.875-.486 4.115-3.76 7.389-7.875 7.875zm7.875-15.875c-.485 4.115-3.76 7.39-7.875 7.875.485-4.116 3.759-7.39 7.875-7.875zm-8.938-6.971c1.154 2.331 2.112 5.18 1.46 6.331-.081.142-.327.577-1.46.577s-1.379-.435-1.46-.577c-.652-1.152.306-4 1.46-6.331zm-1.062 14.846c-4.115-.485-7.39-3.76-7.875-7.875 4.115.485 7.389 3.759 7.875 7.875zm0 8c-4.115-.485-7.39-3.76-7.875-7.875 4.115.485 7.389 3.759 7.875 7.875zm0 8c-4.115-.485-7.39-3.76-7.875-7.875 4.115.485 7.389 3.759 7.875 7.875zm0 8c-4.115-.485-7.39-3.76-7.875-7.875 4.115.485 7.389 3.759 7.875 7.875z"/><path d="m58.978 14.436 2.729-2.729-1.414-1.414-2.729 2.729c-2.386.094-4.577.946-6.339 2.33 1.508-2.795-1.326-8.081-2.225-9.625v-3.727h-2v3.727c-.899 1.544-3.733 6.83-2.225 9.625-1.762-1.384-3.953-2.236-6.339-2.33l-2.729-2.729-1.414 1.414 2.729 2.729c.101 2.552 1.067 4.882 2.624 6.701-.397-.06-.8-.099-1.21-.115l-2.729-2.729-1.414 1.414 2.729 2.729c.101 2.552 1.067 4.882 2.624 6.701-.397-.06-.8-.099-1.21-.115l-2.729-2.729-1.414 1.414 2.729 2.729c.101 2.552 1.067 4.882 2.624 6.701-.397-.06-.8-.099-1.21-.115l-2.729-2.729-1.414 1.414 2.729 2.729c.218 5.528 4.524 10.019 9.978 10.513v13.051h2v-13.051c5.454-.494 9.76-4.985 9.978-10.513l2.729-2.729-1.414-1.414-2.729 2.729c-.41.016-.813.055-1.21.115 1.556-1.819 2.523-4.149 2.624-6.701l2.729-2.729-1.414-1.414-2.729 2.729c-.41.016-.813.055-1.21.115 1.556-1.819 2.523-4.149 2.624-6.701l2.729-2.729-1.414-1.414-2.729 2.729c-.41.016-.813.055-1.21.115 1.557-1.819 2.523-4.149 2.624-6.701zm-10.978 26.564c.561 0 1.107-.056 1.646-.137-.663.775-1.217 1.643-1.646 2.581-.429-.938-.983-1.806-1.646-2.581.539.081 1.085.137 1.646.137zm0-5.556c-.429-.938-.983-1.806-1.646-2.581.539.081 1.085.137 1.646.137s1.107-.056 1.646-.137c-.663.775-1.217 1.643-1.646 2.581zm0-8c-.429-.938-.983-1.806-1.646-2.581.539.081 1.085.137 1.646.137s1.107-.056 1.646-.137c-.663.775-1.217 1.643-1.646 2.581zm0-8c-.474-1.036-1.104-1.983-1.861-2.818.477.223 1.08.374 1.861.374s1.384-.151 1.861-.373c-.757.834-1.387 1.781-1.861 2.817zm8.938-4.381c-.485 4.115-3.76 7.39-7.875 7.875.485-4.116 3.759-7.39 7.875-7.875zm-8.938-6.971c1.154 2.331 2.112 5.18 1.46 6.331-.081.142-.327.577-1.46.577s-1.379-.435-1.46-.577c-.652-1.152.306-4 1.46-6.331zm-1.062 14.846c-4.115-.485-7.39-3.76-7.875-7.875 4.115.485 7.389 3.759 7.875 7.875zm0 8c-4.115-.485-7.39-3.76-7.875-7.875 4.115.485 7.389 3.759 7.875 7.875zm0 8c-4.115-.485-7.39-3.76-7.875-7.875 4.115.485 7.389 3.759 7.875 7.875zm-7.875.125c4.115.485 7.39 3.76 7.875 7.875-4.116-.486-7.39-3.76-7.875-7.875zm10 7.875c.485-4.115 3.76-7.39 7.875-7.875-.486 4.115-3.76 7.389-7.875 7.875zm0-8c.485-4.115 3.76-7.39 7.875-7.875-.486 4.115-3.76 7.389-7.875 7.875zm0-8c.485-4.115 3.76-7.39 7.875-7.875-.486 4.115-3.76 7.389-7.875 7.875z"/></svg>